<svg xmlns="http://www.w3.org/2000/svg" width="45.03" height="78.00" viewBox="0 0 45.03 78.00">
  <defs>
    <filter id="blur" x="-50%" y="-50%" width="200%" height="200%">
      <feGaussianBlur stdDeviation="2.1" />
    </filter>
  </defs>
  <g>
    <polygon points="-45.03,-78.00 -22.52,-65.00 -22.52,-39.00 -45.03,-26.00 -67.55,-39.00 -67.55,-65.00" fill="#1c130e" />
    <polygon points="-45.03,0.00 -22.52,13.00 -22.52,39.00 -45.03,52.00 -67.55,39.00 -67.55,13.00" fill="#1c130e" />
    <polygon points="-45.03,78.00 -22.52,91.00 -22.52,117.00 -45.03,130.00 -67.55,117.00 -67.55,91.00" fill="#1c130e" />
    <polygon points="0.00,-78.00 22.52,-65.00 22.52,-39.00 0.00,-26.00 -22.52,-39.00 -22.52,-65.00" fill="#1c130e" />
    <polygon points="0.00,0.00 22.52,13.00 22.52,39.00 0.00,52.00 -22.52,39.00 -22.52,13.00" fill="#1c130e" />
    <polygon points="0.00,78.00 22.52,91.00 22.52,117.00 0.00,130.00 -22.52,117.00 -22.52,91.00" fill="#1c130e" />
    <polygon points="45.03,-78.00 67.55,-65.00 67.55,-39.00 45.03,-26.00 22.52,-39.00 22.52,-65.00" fill="#1c130e" />
    <polygon points="45.03,0.00 67.55,13.00 67.55,39.00 45.03,52.00 22.52,39.00 22.52,13.00" fill="#1c130e" />
    <polygon points="45.03,78.00 67.55,91.00 67.55,117.00 45.03,130.00 22.52,117.00 22.52,91.00" fill="#1c130e" />
    <polygon points="-22.52,-39.00 0.00,-26.00 0.00,-0.00 -22.52,13.00 -45.03,-0.00 -45.03,-26.00" fill="#241a12" />
    <polygon points="-22.52,39.00 0.00,52.00 0.00,78.00 -22.52,91.00 -45.03,78.00 -45.03,52.00" fill="#241a12" />
    <polygon points="-22.52,117.00 0.00,130.00 0.00,156.00 -22.52,169.00 -45.03,156.00 -45.03,130.00" fill="#241a12" />
    <polygon points="22.52,-39.00 45.03,-26.00 45.03,-0.00 22.52,13.00 -0.00,-0.00 0.00,-26.00" fill="#241a12" />
    <polygon points="22.52,39.00 45.03,52.00 45.03,78.00 22.52,91.00 -0.00,78.00 0.00,52.00" fill="#241a12" />
    <polygon points="22.52,117.00 45.03,130.00 45.03,156.00 22.52,169.00 -0.00,156.00 0.00,130.00" fill="#241a12" />
    <polygon points="67.55,-39.00 90.07,-26.00 90.07,-0.00 67.55,13.00 45.03,-0.00 45.03,-26.00" fill="#241a12" />
    <polygon points="67.55,39.00 90.07,52.00 90.07,78.00 67.55,91.00 45.03,78.00 45.03,52.00" fill="#241a12" />
    <polygon points="67.55,117.00 90.07,130.00 90.07,156.00 67.55,169.00 45.03,156.00 45.03,130.00" fill="#241a12" />
  </g>
  <g filter="url(#blur)">
    <polygon points="-45.03,-78.00 -22.52,-65.00 -22.52,-39.00 -45.03,-26.00 -67.55,-39.00 -67.55,-65.00" fill="none" stroke="rgba(255, 45, 20, 0.6)" stroke-width="4" />
    <polygon points="-45.03,0.00 -22.52,13.00 -22.52,39.00 -45.03,52.00 -67.55,39.00 -67.55,13.00" fill="none" stroke="rgba(255, 45, 20, 0.6)" stroke-width="4" />
    <polygon points="-45.03,78.00 -22.52,91.00 -22.52,117.00 -45.03,130.00 -67.55,117.00 -67.55,91.00" fill="none" stroke="rgba(255, 45, 20, 0.6)" stroke-width="4" />
    <polygon points="0.00,-78.00 22.52,-65.00 22.52,-39.00 0.00,-26.00 -22.52,-39.00 -22.52,-65.00" fill="none" stroke="rgba(255, 45, 20, 0.6)" stroke-width="4" />
    <polygon points="0.00,0.00 22.52,13.00 22.52,39.00 0.00,52.00 -22.52,39.00 -22.52,13.00" fill="none" stroke="rgba(255, 45, 20, 0.6)" stroke-width="4" />
    <polygon points="0.00,78.00 22.52,91.00 22.52,117.00 0.00,130.00 -22.52,117.00 -22.52,91.00" fill="none" stroke="rgba(255, 45, 20, 0.6)" stroke-width="4" />
    <polygon points="45.03,-78.00 67.55,-65.00 67.55,-39.00 45.03,-26.00 22.52,-39.00 22.52,-65.00" fill="none" stroke="rgba(255, 45, 20, 0.6)" stroke-width="4" />
    <polygon points="45.03,0.00 67.55,13.00 67.55,39.00 45.03,52.00 22.52,39.00 22.52,13.00" fill="none" stroke="rgba(255, 45, 20, 0.6)" stroke-width="4" />
    <polygon points="45.03,78.00 67.55,91.00 67.55,117.00 45.03,130.00 22.52,117.00 22.52,91.00" fill="none" stroke="rgba(255, 45, 20, 0.6)" stroke-width="4" />
    <polygon points="-22.52,-39.00 0.00,-26.00 0.00,-0.00 -22.52,13.00 -45.03,-0.00 -45.03,-26.00" fill="none" stroke="rgba(255, 45, 20, 0.6)" stroke-width="4" />
    <polygon points="-22.52,39.00 0.00,52.00 0.00,78.00 -22.52,91.00 -45.03,78.00 -45.03,52.00" fill="none" stroke="rgba(255, 45, 20, 0.6)" stroke-width="4" />
    <polygon points="-22.52,117.00 0.00,130.00 0.00,156.00 -22.52,169.00 -45.03,156.00 -45.03,130.00" fill="none" stroke="rgba(255, 45, 20, 0.6)" stroke-width="4" />
    <polygon points="22.52,-39.00 45.03,-26.00 45.03,-0.00 22.52,13.00 -0.00,-0.00 0.00,-26.00" fill="none" stroke="rgba(255, 45, 20, 0.6)" stroke-width="4" />
    <polygon points="22.52,39.00 45.03,52.00 45.03,78.00 22.52,91.00 -0.00,78.00 0.00,52.00" fill="none" stroke="rgba(255, 45, 20, 0.6)" stroke-width="4" />
    <polygon points="22.52,117.00 45.03,130.00 45.03,156.00 22.52,169.00 -0.00,156.00 0.00,130.00" fill="none" stroke="rgba(255, 45, 20, 0.6)" stroke-width="4" />
    <polygon points="67.55,-39.00 90.07,-26.00 90.07,-0.00 67.55,13.00 45.03,-0.00 45.03,-26.00" fill="none" stroke="rgba(255, 45, 20, 0.6)" stroke-width="4" />
    <polygon points="67.55,39.00 90.07,52.00 90.07,78.00 67.55,91.00 45.03,78.00 45.03,52.00" fill="none" stroke="rgba(255, 45, 20, 0.6)" stroke-width="4" />
    <polygon points="67.55,117.00 90.07,130.00 90.07,156.00 67.55,169.00 45.03,156.00 45.03,130.00" fill="none" stroke="rgba(255, 45, 20, 0.6)" stroke-width="4" />
  </g>
  <g>
    <polygon points="-45.03,-78.00 -22.52,-65.00 -22.52,-39.00 -45.03,-26.00 -67.55,-39.00 -67.55,-65.00" fill="none" stroke="rgba(255, 140, 70, 0.9)" stroke-width="1.1" />
    <polygon points="-45.03,0.00 -22.52,13.00 -22.52,39.00 -45.03,52.00 -67.55,39.00 -67.55,13.00" fill="none" stroke="rgba(255, 140, 70, 0.9)" stroke-width="1.1" />
    <polygon points="-45.03,78.00 -22.52,91.00 -22.52,117.00 -45.03,130.00 -67.55,117.00 -67.55,91.00" fill="none" stroke="rgba(255, 140, 70, 0.9)" stroke-width="1.1" />
    <polygon points="0.00,-78.00 22.52,-65.00 22.52,-39.00 0.00,-26.00 -22.52,-39.00 -22.52,-65.00" fill="none" stroke="rgba(255, 140, 70, 0.9)" stroke-width="1.1" />
    <polygon points="0.00,0.00 22.52,13.00 22.52,39.00 0.00,52.00 -22.52,39.00 -22.52,13.00" fill="none" stroke="rgba(255, 140, 70, 0.9)" stroke-width="1.1" />
    <polygon points="0.00,78.00 22.52,91.00 22.52,117.00 0.00,130.00 -22.52,117.00 -22.52,91.00" fill="none" stroke="rgba(255, 140, 70, 0.9)" stroke-width="1.1" />
    <polygon points="45.03,-78.00 67.55,-65.00 67.55,-39.00 45.03,-26.00 22.52,-39.00 22.52,-65.00" fill="none" stroke="rgba(255, 140, 70, 0.9)" stroke-width="1.1" />
    <polygon points="45.03,0.00 67.55,13.00 67.55,39.00 45.03,52.00 22.52,39.00 22.52,13.00" fill="none" stroke="rgba(255, 140, 70, 0.9)" stroke-width="1.1" />
    <polygon points="45.03,78.00 67.55,91.00 67.55,117.00 45.03,130.00 22.52,117.00 22.52,91.00" fill="none" stroke="rgba(255, 140, 70, 0.9)" stroke-width="1.1" />
    <polygon points="-22.52,-39.00 0.00,-26.00 0.00,-0.00 -22.52,13.00 -45.03,-0.00 -45.03,-26.00" fill="none" stroke="rgba(255, 140, 70, 0.9)" stroke-width="1.1" />
    <polygon points="-22.52,39.00 0.00,52.00 0.00,78.00 -22.52,91.00 -45.03,78.00 -45.03,52.00" fill="none" stroke="rgba(255, 140, 70, 0.9)" stroke-width="1.1" />
    <polygon points="-22.52,117.00 0.00,130.00 0.00,156.00 -22.52,169.00 -45.03,156.00 -45.03,130.00" fill="none" stroke="rgba(255, 140, 70, 0.9)" stroke-width="1.1" />
    <polygon points="22.52,-39.00 45.03,-26.00 45.03,-0.00 22.52,13.00 -0.00,-0.00 0.00,-26.00" fill="none" stroke="rgba(255, 140, 70, 0.9)" stroke-width="1.1" />
    <polygon points="22.52,39.00 45.03,52.00 45.03,78.00 22.52,91.00 -0.00,78.00 0.00,52.00" fill="none" stroke="rgba(255, 140, 70, 0.9)" stroke-width="1.1" />
    <polygon points="22.52,117.00 45.03,130.00 45.03,156.00 22.52,169.00 -0.00,156.00 0.00,130.00" fill="none" stroke="rgba(255, 140, 70, 0.9)" stroke-width="1.1" />
    <polygon points="67.55,-39.00 90.07,-26.00 90.07,-0.00 67.55,13.00 45.03,-0.00 45.03,-26.00" fill="none" stroke="rgba(255, 140, 70, 0.9)" stroke-width="1.1" />
    <polygon points="67.55,39.00 90.07,52.00 90.07,78.00 67.55,91.00 45.03,78.00 45.03,52.00" fill="none" stroke="rgba(255, 140, 70, 0.9)" stroke-width="1.1" />
    <polygon points="67.55,117.00 90.07,130.00 90.07,156.00 67.55,169.00 45.03,156.00 45.03,130.00" fill="none" stroke="rgba(255, 140, 70, 0.9)" stroke-width="1.1" />
  </g>
</svg>
